# xmcd CD database file
#
# Track frame offsets:
#	150
#	18674
#	34799
#	76199
#	97949
#	121799
#	158849
#	180899
#	198899
#	215774
#	240149
#	290999
#
# Disc length: 4298 seconds
#
# Revision: 0
# Processed by: cddbd v1.5.1PL2 Copyright (c) Steve Scherf et al.
# Submitted via: NeoAudio 9.9.9
#
DISCID=9210c80c
DTITLE=Ken Colyer's jazzmen  - The Classic years Vol 3
DYEAR=1900
DGENRE=Jazz
TTITLE0=Thriller RAG
TTITLE1=Dindt he Ramble
TTITLE2=Tin roof Blues
TTITLE3=Maryland,My Maryland
TTITLE4=South
TTITLE5=Tishomingo blues
TTITLE6=Play me Gypsy
TTITLE7=Origional Dixieland one step
TTITLE8=Brams cradle Song
TTITLE9=Sheik of Araby
TTITLE10=Chimes blues
TTITLE11=Hiawatha - A Summer Idyll
EXTD=
EXTT0=
EXTT1=
EXTT2=
EXTT3=
EXTT4=
EXTT5=
EXTT6=
EXTT7=
EXTT8=
EXTT9=
EXTT10=
EXTT11=
PLAYORDER=
